<?xml version="1.0" encoding="iso-8859-1"?>
<!-- Generator: Adobe Illustrator 21.0.0, SVG Export Plug-In . SVG Version: 6.00 Build 0)  -->
<svg xmlns="http://www.w3.org/2000/svg" xmlns:xlink="http://www.w3.org/1999/xlink" version="1.1" id="Capa_1" x="0px" y="0px" viewBox="0 0 512 512" style="enable-background:new 0 0 512 512;" xml:space="preserve" width="512" height="512">
<g>
	<path style="fill:#B3E5FC;" d="M311.835,512h-111.67c-23.214,0-42.032-18.818-42.032-42.032V289.996h195.734v179.972   C353.867,493.182,335.049,512,311.835,512z"/>
	<path style="fill:#81D4FA;" d="M322.962,289.996v179.972c0,23.214-18.818,42.032-42.032,42.032h30.905   c23.214,0,42.032-18.818,42.032-42.032V289.996H322.962z"/>
	<path style="fill:#BA68C8;" d="M158.133,348.373v121.595c0,23.214,18.818,42.032,42.032,42.032h111.67   c23.214,0,42.032-18.818,42.032-42.032V348.373H158.133z"/>
	<path style="fill:#AB47BC;" d="M322.962,348.373v121.595c0,23.214-18.818,42.032-42.032,42.032h30.905   c23.214,0,42.032-18.818,42.032-42.032V348.373H322.962z"/>
	<path style="fill:#BA68C8;" d="M185.339,123.147c0,4.206-9.455,7.904-23.732,10.018c-9.171,1.358-16.4,8.587-17.758,17.757   c-2.114,14.28-5.812,23.74-10.019,23.74c-4.206,0-7.905-9.461-10.019-23.74c-1.357-9.17-8.587-16.399-17.758-17.757   c-14.277-2.114-23.732-5.812-23.732-10.018c0-4.206,9.455-7.904,23.733-10.017c9.171-1.358,16.4-8.586,17.758-17.756   c2.114-14.276,5.812-23.73,10.018-23.73c4.206,0,7.905,9.454,10.019,23.73c1.358,9.17,8.587,16.398,17.758,17.756   C175.884,115.243,185.339,118.941,185.339,123.147z"/>
	<path style="fill:#BA68C8;" d="M512,223.307c0,3.757-8.447,7.061-21.201,8.949c-8.193,1.213-14.651,7.671-15.864,15.863   c-1.888,12.756-5.192,21.208-8.95,21.208c-3.758,0-7.062-8.452-8.95-21.208c-1.213-8.192-7.671-14.65-15.864-15.863   c-12.754-1.888-21.201-5.192-21.201-8.949c0-3.757,8.447-7.061,21.201-8.949c8.192-1.213,14.65-7.67,15.863-15.862   c1.888-12.753,5.192-21.199,8.95-21.199c3.758,0,7.062,8.446,8.95,21.199c1.213,8.192,7.671,14.649,15.863,15.862   C503.553,216.246,512,219.55,512,223.307z"/>
	<path style="fill:#BA68C8;" d="M388.761,61.478c0,3.044-6.842,5.72-17.173,7.249c-6.636,0.982-11.868,6.213-12.85,12.849   c-1.53,10.333-4.206,17.179-7.25,17.179c-3.044,0-5.72-6.846-7.25-17.179c-0.982-6.636-6.214-11.867-12.85-12.849   c-10.331-1.529-17.173-4.205-17.173-7.249c0-3.043,6.842-5.719,17.174-7.249c6.636-0.982,11.867-6.213,12.85-12.848   c1.53-10.33,4.206-17.172,7.25-17.172c3.044,0,5.72,6.841,7.25,17.172c0.983,6.635,6.214,11.866,12.85,12.848   C381.919,55.759,388.761,58.435,388.761,61.478z"/>
	<path style="fill:#BA68C8;" d="M89.381,275.129c0,2.544-5.718,4.78-14.352,6.058c-5.546,0.821-9.918,5.193-10.739,10.738   c-1.278,8.636-3.515,14.357-6.059,14.357c-2.544,0-4.78-5.721-6.059-14.357c-0.821-5.546-5.193-9.917-10.739-10.739   c-8.634-1.278-14.352-3.515-14.352-6.058c0-2.544,5.718-4.78,14.353-6.058c5.546-0.821,9.918-5.193,10.739-10.738   c1.278-8.633,3.515-14.351,6.059-14.351c2.544,0,4.78,5.718,6.059,14.351c0.821,5.545,5.193,9.917,10.739,10.738   C83.663,270.349,89.381,272.585,89.381,275.129z"/>
	<circle style="fill:#BA68C8;" cx="255.114" cy="174.101" r="15.968"/>
	<circle style="fill:#BA68C8;" cx="470.541" cy="15.968" r="15.968"/>
	<circle style="fill:#BA68C8;" cx="15.968" cy="41.132" r="15.968"/>
	<path style="fill:#81D4FA;" d="M353.803,306.994H158.197c-9.139,0-16.547-7.408-16.547-16.547v-0.902   c0-9.139,7.408-16.547,16.547-16.547h195.606c9.139,0,16.547,7.408,16.547,16.547v0.902   C370.35,299.586,362.942,306.994,353.803,306.994z"/>
	<path style="fill:#4FC3F7;" d="M353.803,272.998h-30.905c9.139,0,16.547,7.408,16.547,16.547v0.902   c0,9.138-7.408,16.547-16.547,16.547h30.905c9.139,0,16.547-7.408,16.547-16.547v-0.902   C370.35,280.406,362.942,272.998,353.803,272.998z"/>
</g>















</svg>
